<svg xmlns="http://www.w3.org/2000/svg" width="24" height="24" viewBox="0 0 24 24">
  <path id="Icon_zocial-persona" data-name="Icon zocial-persona" d="M9.847,18.84a34.562,34.562,0,0,1-4.975-.22s.195-3.873,1.554-4.568,1.692-.6,2.163-.969l.035-.026V12.014A5.2,5.2,0,0,1,7.6,9.827a2.021,2.021,0,0,1-.387-1.181,1.98,1.98,0,0,1,.189-.84c.08-2.183,1.146-3.628,2.449-3.628S12.219,5.623,12.3,7.807a1.975,1.975,0,0,1,.189.84A2.021,2.021,0,0,1,12.1,9.827a5.189,5.189,0,0,1-1.023,2.187v1.043l.035.026c.472.371.8.272,2.164.969s1.553,4.568,1.553,4.568a34.743,34.743,0,0,1-4.982.22M16.1-.035H.87A1.036,1.036,0,0,0-.006,1.108V22.824A1.035,1.035,0,0,0,.87,23.965H16.1l7.89-12-7.89-12Z" transform="translate(0.006 0.035)"/>
</svg>
