<svg xmlns="http://www.w3.org/2000/svg" width="24.45" height="30" viewBox="0 0 24.45 30">
  <path id="Icon_awesome-book" data-name="Icon awesome-book" d="M24.45,21.094V1.406A1.357,1.357,0,0,0,23.14,0H5.239A5.444,5.444,0,0,0,0,5.625v18.75A5.444,5.444,0,0,0,5.239,30h17.9a1.357,1.357,0,0,0,1.31-1.406v-.937a1.459,1.459,0,0,0-.486-1.1,14.016,14.016,0,0,1,0-4.377A1.437,1.437,0,0,0,24.45,21.094ZM6.986,7.852A.341.341,0,0,1,7.313,7.5h11.57a.341.341,0,0,1,.327.352V9.023a.341.341,0,0,1-.327.352H7.313a.341.341,0,0,1-.327-.352Zm0,3.75a.341.341,0,0,1,.327-.352h11.57a.341.341,0,0,1,.327.352v1.172a.341.341,0,0,1-.327.352H7.313a.341.341,0,0,1-.327-.352ZM20.815,26.25H5.239a1.88,1.88,0,0,1,0-3.75H20.815A22.641,22.641,0,0,0,20.815,26.25Z"/>
</svg>
