<?xml version="1.0" encoding="iso-8859-1"?>
<!-- Generator: Adobe Illustrator 19.0.0, SVG Export Plug-In . SVG Version: 6.00 Build 0)  -->
<svg version="1.1" id="Capa_1" xmlns="http://www.w3.org/2000/svg" xmlns:xlink="http://www.w3.org/1999/xlink" x="0px" y="0px"
	 viewBox="0 0 512 512" style="enable-background:new 0 0 512 512;" xml:space="preserve">
<path style="fill:#FEDB41;" d="M499.022,224.671L287.329,12.978C278.961,4.609,267.834,0,256,0
	c-11.834,0-22.961,4.609-31.329,12.978L12.978,224.671C4.609,233.039,0,244.165,0,256s4.609,22.961,12.978,31.329l211.693,211.693
	C233.039,507.391,244.166,512,256,512c11.834,0,22.961-4.609,31.329-12.978l211.693-211.693C507.391,278.961,512,267.834,512,256
	C512,244.166,507.391,233.039,499.022,224.671z"/>
<path style="fill:#EDC82E;" d="M287.329,499.022l211.693-211.693C507.391,278.961,512,267.834,512,256
	c0-11.834-4.609-22.961-12.978-31.329L287.329,12.978C278.961,4.609,267.834,0,256,0v512
	C267.834,512,278.961,507.391,287.329,499.022z"/>
<path style="fill:#FF6426;" d="M220.339,261.884c1.176,18.785,16.841,33.5,35.661,33.5s34.485-14.715,35.661-33.501l7.226-115.614
	c0.612-9.805-2.894-19.535-9.621-26.694c-6.727-7.159-16.218-11.265-26.041-11.265h-14.452c-9.823,0-19.315,4.106-26.041,11.265
	c-6.726,7.159-10.233,16.889-9.621,26.694L220.339,261.884z"/>
<path style="fill:#D03B00;" d="M263.226,108.309H256v187.075c18.821,0,34.485-14.715,35.661-33.501l7.226-115.614
	c0.612-9.805-2.894-19.535-9.621-26.694C282.54,112.416,273.048,108.309,263.226,108.309z"/>
<path style="fill:#FF6426;" d="M256,315.076c-24.431,0-44.307,19.876-44.307,44.307s19.876,44.307,44.307,44.307
	s44.307-19.876,44.307-44.307S280.431,315.076,256,315.076z"/>
<path style="fill:#D03B00;" d="M300.307,359.383c0-24.431-19.876-44.307-44.307-44.307v88.614
	C280.431,403.691,300.307,383.814,300.307,359.383z"/>
<g>
</g>
<g>
</g>
<g>
</g>
<g>
</g>
<g>
</g>
<g>
</g>
<g>
</g>
<g>
</g>
<g>
</g>
<g>
</g>
<g>
</g>
<g>
</g>
<g>
</g>
<g>
</g>
<g>
</g>
</svg>
