<svg id="SvgjsSvg1001" width="288" height="288" xmlns="http://www.w3.org/2000/svg" version="1.1" xmlns:xlink="http://www.w3.org/1999/xlink" xmlns:svgjs="http://svgjs.com/svgjs"><defs id="SvgjsDefs1002"></defs><g id="SvgjsG1008" transform="matrix(1,0,0,1,0,0)"><svg xmlns="http://www.w3.org/2000/svg" width="288" height="288" enable-background="new 0 0 48 48" viewBox="0 0 48 48"><path d="M12 43H8c-.552 0-1-.447-1-1v-6c0-.553.448-1 1-1h4c1.654 0 3 1.346 3 3v2C15 41.654 13.654 43 12 43zM9 41h3c.551 0 1-.448 1-1v-2c0-.552-.449-1-1-1H9V41zM24 43c-.552 0-1-.447-1-1v-4.132l-1.445.964c-.336.225-.773.225-1.109 0L19 37.868V42c0 .553-.448 1-1 1s-1-.447-1-1v-6c0-.369.203-.708.528-.882.324-.175.719-.155 1.026.05L21 36.798l2.445-1.63c.307-.205.702-.225 1.026-.05C24.797 35.292 25 35.631 25 36v6C25 42.553 24.552 43 24 43zM32 43h-1c-2.206 0-4-1.794-4-4s1.794-4 4-4h1c.553 0 1 .447 1 1s-.447 1-1 1h-1c-1.103 0-2 .897-2 2s.897 2 2 2h1c.553 0 1 .447 1 1S32.553 43 32 43zM40 43c-.553 0-1-.447-1-1v-5h-2v5c0 .553-.447 1-1 1s-1-.447-1-1v-6c0-.553.447-1 1-1h4c.553 0 1 .447 1 1v6C41 42.553 40.553 43 40 43z" fill="#0e0e38" class="color000 svgShape"></path><path d="M40,41h-4c-0.553,0-1-0.447-1-1s0.447-1,1-1h4c0.553,0,1,0.447,1,1S40.553,41,40,41z" fill="#0e0e38" class="color000 svgShape"></path><path d="M44,48H4c-0.552,0-1-0.447-1-1V1c0-0.553,0.448-1,1-1h40c0.553,0,1,0.447,1,1v46C45,47.553,44.553,48,44,48z M5,46h38V2H5
		V46z" fill="#0e0e38" class="color000 svgShape"></path><path d="M18,28H8c-0.552,0-1-0.447-1-1V9c0-0.553,0.448-1,1-1h10c0.552,0,1,0.447,1,1v18C19,27.553,18.552,28,18,28z M9,26h8V10H9
		V26z" fill="#0e0e38" class="color000 svgShape"></path><path d="M16 32h-6c-.552 0-1-.447-1-1v-4c0-.553.448-1 1-1h6c.552 0 1 .447 1 1v4C17 31.553 16.552 32 16 32zM11 30h4v-2h-4V30zM16 10h-6c-.552 0-1-.447-1-1V5c0-.553.448-1 1-1h6c.552 0 1 .447 1 1v4C17 9.553 16.552 10 16 10zM11 8h4V6h-4V8zM40 21H18c-.552 0-1-.447-1-1v-4c0-.553.448-1 1-1h22c.553 0 1 .447 1 1v4C41 20.553 40.553 21 40 21zM19 19h20v-2H19V19z" fill="#0e0e38" class="color000 svgShape"></path></svg></g></svg>