<svg id="color" enable-background="new 0 0 24 24" height="512" viewBox="0 0 24 24" width="512" xmlns="http://www.w3.org/2000/svg"><path d="m7 2.75c-.553 0-1 .447-1 1v3c0 .553.447 1 1 1s1-.447 1-1v-3c0-.553-.447-1-1-1z" fill="#607d8b"/><path d="m17 2.75c-.553 0-1 .447-1 1v3c0 .553.447 1 1 1s1-.447 1-1v-3c0-.553-.447-1-1-1z" fill="#607d8b"/><path d="m7 2.75c-.553 0-1 .447-1 1v3c0 .553.447 1 1 1z" fill="#546d79"/><path d="m17 2.75c-.553 0-1 .447-1 1v3c0 .553.447 1 1 1z" fill="#546d79"/><path d="m20.25 6h-16.5c-.414 0-.75.336-.75.75v16.5c0 .24.115.466.309.606.194.142.443.182.672.107l8.019-2.594 8.02 2.595.23.036c.156 0 .312-.049.441-.144.194-.14.309-.366.309-.606v-16.5c0-.414-.336-.75-.75-.75z" fill="#ffc107"/><path d="m23.25 0h-22.5c-.414 0-.75.336-.75.75v1.5c0 .965.785 1.75 1.75 1.75h20.5c.965 0 1.75-.785 1.75-1.75v-1.5c0-.414-.336-.75-.75-.75z" fill="#455a64"/><g fill="#fafafa"><path d="m16.25 11h-8.5c-.414 0-.75-.336-.75-.75s.336-.75.75-.75h8.5c.414 0 .75.336.75.75s-.336.75-.75.75z"/><path d="m16.25 13.5h-8.5c-.414 0-.75-.336-.75-.75s.336-.75.75-.75h8.5c.414 0 .75.336.75.75s-.336.75-.75.75z"/><path d="m16.25 16h-8.5c-.414 0-.75-.336-.75-.75s.336-.75.75-.75h8.5c.414 0 .75.336.75.75s-.336.75-.75.75z"/><path d="m16.25 18.5h-8.5c-.414 0-.75-.336-.75-.75s.336-.75.75-.75h8.5c.414 0 .75.336.75.75s-.336.75-.75.75z"/></g><path d="m12 6h-8.25c-.414 0-.75.336-.75.75v16.5c0 .24.115.466.309.606.123.09.268.138.415.144h.052c.069-.002.138-.014.205-.036l8.019-2.595v-2.869h-4.25c-.414 0-.75-.336-.75-.75s.336-.75.75-.75h4.25v-1h-4.25c-.414 0-.75-.336-.75-.75s.336-.75.75-.75h4.25v-1h-4.25c-.414 0-.75-.336-.75-.75s.336-.75.75-.75h4.25v-1h-4.25c-.414 0-.75-.336-.75-.75s.336-.75.75-.75h4.25z" fill="#dea806"/><path d="m12 0h-11.25c-.414 0-.75.336-.75.75v1.5c0 .965.785 1.75 1.75 1.75h10.25z" fill="#3c4e57"/><path d="m12 9.5h-4.25c-.414 0-.75.336-.75.75s.336.75.75.75h4.25z" fill="#dadada"/><path d="m12 12h-4.25c-.414 0-.75.336-.75.75s.336.75.75.75h4.25z" fill="#dadada"/><path d="m12 14.5h-4.25c-.414 0-.75.336-.75.75s.336.75.75.75h4.25z" fill="#dadada"/><path d="m12 17h-4.25c-.414 0-.75.336-.75.75s.336.75.75.75h4.25z" fill="#dadada"/></svg>