<svg height="512" viewBox="0 0 512 512" width="512" xmlns="http://www.w3.org/2000/svg"><g id="flat"><g fill="#fbb540"><path d="m261.908 84.292 10.356 31.873h33.512a6.212 6.212 0 0 1 3.652 11.237l-27.113 19.7 10.356 31.873a6.211 6.211 0 0 1 -9.559 6.944l-27.112-19.7-27.112 19.7a6.211 6.211 0 0 1 -9.559-6.944l10.356-31.875-27.113-19.7a6.212 6.212 0 0 1 3.652-11.237h33.512l10.356-31.873a6.212 6.212 0 0 1 11.816.002z"/><path d="m137.042 142.532 8.2 25.249h26.548a4.921 4.921 0 0 1 2.893 8.9l-21.478 15.6 8.2 25.249a4.921 4.921 0 0 1 -7.573 5.5l-21.478-15.605-21.478 15.605a4.921 4.921 0 0 1 -7.572-5.5l8.2-25.249-21.478-15.6a4.921 4.921 0 0 1 2.892-8.9h26.548l8.2-25.249a4.921 4.921 0 0 1 9.376 0z"/><path d="m72.318 246.532 8.2 25.249h26.552a4.921 4.921 0 0 1 2.892 8.9l-21.478 15.6 8.2 25.249a4.921 4.921 0 0 1 -7.572 5.5l-21.474-15.597-21.478 15.605a4.921 4.921 0 0 1 -7.573-5.5l8.2-25.249-21.478-15.6a4.921 4.921 0 0 1 2.893-8.9h26.552l8.2-25.249a4.921 4.921 0 0 1 9.364-.008z"/><path d="m448.318 246.532 8.2 25.249h26.552a4.921 4.921 0 0 1 2.892 8.9l-21.478 15.6 8.2 25.249a4.921 4.921 0 0 1 -7.572 5.5l-21.478-15.605-21.474 15.613a4.921 4.921 0 0 1 -7.573-5.5l8.2-25.249-21.478-15.6a4.921 4.921 0 0 1 2.893-8.9h26.548l8.2-25.249a4.921 4.921 0 0 1 9.368-.008z"/><path d="m384.318 142.532 8.2 25.249h26.552a4.921 4.921 0 0 1 2.892 8.9l-21.478 15.6 8.2 25.249a4.921 4.921 0 0 1 -7.572 5.5l-21.478-15.605-21.474 15.613a4.921 4.921 0 0 1 -7.573-5.5l8.2-25.249-21.478-15.6a4.921 4.921 0 0 1 2.893-8.9h26.548l8.2-25.249a4.921 4.921 0 0 1 9.368-.008z"/></g><path d="m144 312.695h64v112h-64z" fill="#0296e5"/><path d="m352 312.7h-64v-48a24 24 0 0 0 -24-24h-16l-2.94 20.583a68.282 68.282 0 0 1 -37.06 51.417v112l7.252 4.835a66.476 66.476 0 0 0 36.876 11.165h91.872a16 16 0 0 0 16-16 16 16 0 0 0 -16-16 16 16 0 0 0 16-16 16 16 0 0 0 -16-16 16 16 0 0 0 16-16 16 16 0 0 0 -16-16h8a16 16 0 0 0 16-16 16 16 0 0 0 -16-16z" fill="#fdc9a6"/></g></svg>