<svg id="Flat" enable-background="new 0 0 64 64" height="512" viewBox="0 0 64 64" width="512" xmlns="http://www.w3.org/2000/svg"><path d="m61 0h-44c-.552 0-1 .448-1 1v62c0 .552.448 1 1 1h44c.552 0 1-.448 1-1v-62c0-.552-.448-1-1-1z" fill="#ff7b66"/><path d="m21 59h25l11-10v-42h-36z" fill="#fffefe"/><path d="m27 0v10c0 .552.448 1 1 1h22c.552 0 1-.448 1-1v-10z" fill="#ffe585"/><path d="m30 5h2v2h-2z" fill="#fffefa"/><path d="m46 5h2v2h-2z" fill="#fffefa"/><g fill="#ebebeb"><path d="m47 49h10l-11 10v-9c0-.552.448-1 1-1z"/><path d="m28 17h23v16h-23z"/><path d="m34 38h11v2h-11z"/><path d="m47 38h6v2h-6z"/><path d="m31 44h11v2h-11z"/><path d="m44 44h9v2h-9z"/><path d="m26 50h17v2h-17z"/></g><path d="m34 5h10v2h-10z" fill="#fffefa"/><path d="m32 27-1.352 7.661c-1.059 6-4.36 11.373-9.235 15.029l-4.413 3.31-4.543-3.452c-4.811-3.655-8.066-8.991-9.116-14.942l-1.341-7.606 15-8z" fill="#bde660"/><path d="m14.877 46.363c-4.021-3.056-6.719-7.478-7.596-12.451l-.837-4.749 10.556-5.63 10.556 5.63-.847 4.802c-.886 5.019-3.619 9.466-7.696 12.524l-1.998 1.499z" fill="#fdfefc"/><path d="m16.999 49.372c-.213 0-.426-.068-.605-.204l-3.332-2.531c-3.74-2.842-6.249-6.954-7.065-11.58l-.983-5.578c-.075-.426.132-.853.514-1.056l5.001-2.667.941 1.765-4.36 2.325.857 4.863c.728 4.128 2.967 7.798 6.305 10.334l2.73 2.075 2.632-1.974c3.384-2.538 5.652-6.23 6.387-10.396l.866-4.903-4.362-2.327.941-1.765 5.002 2.668c.382.204.589.63.514 1.056l-.992 5.618c-.824 4.667-3.365 8.804-7.157 11.647l-3.236 2.427c-.176.136-.387.203-.598.203z" fill="#d7f0a0"/><path d="m20.53 26.455-3.531-1.883-3.528 1.882-.941-1.765 3.999-2.133c.294-.157.647-.157.941 0l4.002 2.134z" fill="#d7f0a0"/><path d="m16 40c-.013 0-.025 0-.038 0-.301-.012-.582-.158-.762-.399l-3-4 1.6-1.2 2.26 3.013 6.188-7.072 1.505 1.317-7 8c-.191.217-.465.341-.753.341z" fill="#bde660"/><path d="m16 28h2v2h-2z" fill="#bde660"/><path d="m16 42h2v2h-2z" fill="#bde660"/></svg>